<svg width="33" height="33" viewBox="0 0 33 33" fill="none" xmlns="http://www.w3.org/2000/svg">
<path fill-rule="evenodd" clip-rule="evenodd" d="M16.5 33C25.6127 33 33 25.6127 33 16.5C33 7.3873 25.6127 0 16.5 0C7.3873 0 0 7.3873 0 16.5C0 25.6127 7.3873 33 16.5 33Z" fill="#444A34"/>
<path d="M20.4102 17.5625L20.8769 14.4859H17.9589V12.4894C17.9589 11.6477 18.3665 10.8272 19.6734 10.8272H21V8.20785C21 8.20785 19.7961 8 18.6451 8C16.242 8 14.6712 9.47355 14.6712 12.1411V14.4859H12V17.5625H14.6712V25H17.9589V17.5625H20.4102Z" fill="#5E6648"/>
</svg>
