<svg width="33" height="33" viewBox="0 0 33 33" fill="none" xmlns="http://www.w3.org/2000/svg">
<path fill-rule="evenodd" clip-rule="evenodd" d="M16.5 33C25.6127 33 33 25.6127 33 16.5C33 7.3873 25.6127 0 16.5 0C7.3873 0 0 7.3873 0 16.5C0 25.6127 7.3873 33 16.5 33Z" fill="white"/>
<path d="M16.5 0C7.39173 0 0 7.39173 0 16.5C0 25.6083 7.39173 33 16.5 33C25.6083 33 33 25.6083 33 16.5C33 7.39173 25.6083 0 16.5 0ZM11.7962 24.75C9.60813 24.75 7.50971 23.8808 5.96254 22.3336C4.41536 20.7865 3.54617 18.688 3.54617 16.5C3.54617 14.312 4.41536 12.2135 5.96254 10.6664C7.50971 9.11919 9.60813 8.25 11.7962 8.25C13.8786 8.25 15.7948 8.98186 17.3183 10.399L15.0829 12.5679C14.2046 11.7097 13.0004 11.2972 11.7962 11.2972C8.94194 11.2972 6.65988 13.6591 6.65988 16.4933C6.65988 19.3276 8.93528 21.6895 11.7962 21.6895C13.9651 21.6895 16.1141 20.4188 16.4601 18.1433H11.7962V15.3091H19.5738C19.6596 15.7631 19.702 16.2242 19.7002 16.6863C19.7002 21.3968 16.5399 24.75 11.7962 24.75ZM27.1119 17.6843V20.0462H24.75V17.6843H22.3881V15.3224H24.75V12.9605H27.1119V15.3224H29.4538V17.6843H27.1119Z" fill="#FFD723"/>
</svg>
