<svg width="33" height="33" viewBox="0 0 33 33" fill="none" xmlns="http://www.w3.org/2000/svg">
<path fill-rule="evenodd" clip-rule="evenodd" d="M16.5 33C25.6127 33 33 25.6127 33 16.5C33 7.3873 25.6127 0 16.5 0C7.3873 0 0 7.3873 0 16.5C0 25.6127 7.3873 33 16.5 33Z" fill="#444A34"/>
<path d="M12.3576 22H9.24777V11.9853H12.3576V22ZM10.801 10.6192C9.80658 10.6192 9 9.79549 9 8.80104C9 8.32338 9.18975 7.86528 9.5275 7.52751C9.86526 7.18975 10.3233 7 10.801 7C11.2787 7 11.7368 7.18975 12.0745 7.52751C12.4123 7.86528 12.602 8.32338 12.602 8.80104C12.602 9.79549 11.7951 10.6192 10.801 10.6192ZM23.9967 22H20.8935V17.1249C20.8935 15.963 20.8701 14.473 19.2767 14.473C17.6598 14.473 17.4121 15.7354 17.4121 17.0412V22H14.3056V11.9853H17.2882V13.3514H17.3317C17.7469 12.5645 18.761 11.7341 20.2741 11.7341C23.4214 11.7341 24 13.8067 24 16.4988V22H23.9967Z" fill="#5E6648"/>
</svg>
