<svg width="33" height="33" viewBox="0 0 33 33" fill="none" xmlns="http://www.w3.org/2000/svg">
<path fill-rule="evenodd" clip-rule="evenodd" d="M16.5 33C25.6127 33 33 25.6127 33 16.5C33 7.3873 25.6127 0 16.5 0C7.3873 0 0 7.3873 0 16.5C0 25.6127 7.3873 33 16.5 33Z" fill="#444A34"/>
<path d="M23.3609 13.2398C23.3711 13.382 23.3711 13.5242 23.3711 13.6664C23.3711 18.0031 20.0703 23 14.0375 23C12.1789 23 10.4524 22.4617 9 21.5274C9.26407 21.5578 9.51795 21.568 9.79219 21.568C11.3258 21.568 12.7375 21.05 13.8648 20.1664C12.4227 20.1359 11.2141 19.1914 10.7976 17.8914C11.0008 17.9219 11.2039 17.9422 11.4172 17.9422C11.7117 17.9422 12.0063 17.9015 12.2805 17.8305C10.7774 17.5258 9.64997 16.2055 9.64997 14.6109V14.5703C10.0867 14.8141 10.5945 14.9664 11.1328 14.9867C10.2492 14.3976 9.67029 13.3922 9.67029 12.2547C9.67029 11.6453 9.83276 11.0867 10.1172 10.5992C11.732 12.5898 14.1594 13.8898 16.8812 14.032C16.8304 13.7883 16.8 13.5344 16.8 13.2805C16.8 11.4726 18.2625 10 20.0804 10C21.025 10 21.8781 10.3961 22.4773 11.0359C23.2187 10.8938 23.9296 10.6195 24.5593 10.2438C24.3156 11.0055 23.7976 11.6453 23.1172 12.0516C23.7773 11.9805 24.4172 11.7976 25.0062 11.5438C24.5594 12.1937 24.0008 12.7726 23.3609 13.2398Z" fill="#5E6648"/>
</svg>
